<svg id="ic-logo" xmlns="http://www.w3.org/2000/svg" width="6.63mm" height="8.47mm" viewBox="0 0 18.8 24"><title>ic-logo</title><path id="braco" d="M21.7,8.9l-.9.7-1.4,1.1a3.76,3.76,0,0,0-1.5-2.3l2.8-2.1L19.7,5a1,1,0,0,1,.2-1.5L22,6.3a1.74,1.74,0,0,1,.3,1.4,1.74,1.74,0,0,1-.6,1.2Z" transform="translate(-4.2 -2)"/><path id="perna" d="M12.9,18.6c3.1-1.6,5.8-2.1,6.5-1,.6.9-.4,2.6-2.3,4.4l1.8,2.9h1.2a1,1,0,0,1,1,1.1H17.4l-.7-1.1-1-1.7-.4-.7a1.88,1.88,0,0,0,.2-.8,1.58,1.58,0,0,0-1.6-1.6h-.1l-.9-1.5Z" transform="translate(-4.2 -2)"/><path id="corpo" d="M4.2,8.5A1.72,1.72,0,0,1,5.9,7.1a1.7,1.7,0,0,1,.7.1,1.78,1.78,0,0,1,1,1.6V17a1.1,1.1,0,0,0,1,1.1,1,1,0,0,0,.9-.6v-.1l1-2.4L8.7,8.5h0c0-.1,0-.1-.1-.2A5.53,5.53,0,0,1,11.5,2L16,3.6a1.21,1.21,0,0,1,.7,1.3l-1.1-.4a.89.89,0,0,0-1.1.5A.85.85,0,0,0,15,6.1l1.2.4a1,1,0,0,1-1.3.6l-1.2-.5a1.09,1.09,0,0,0,.7,1.2l2.3.9a2.76,2.76,0,0,1,1.7,2.6v.2H22V10.1c0-.4.5-.7.8-.9L23,9v3.5a1.79,1.79,0,0,1-1.8,1.8H17.1a4.1,4.1,0,0,0-1.1.1h-.1a4.72,4.72,0,0,0-3.4,4v.4a4.84,4.84,0,0,0,1,2.9c0,.1.1.1.1.2a1.45,1.45,0,0,1,.2.7,1.2,1.2,0,0,1-1.1,1.2,1.42,1.42,0,0,1-.6-.2L9.8,22.2a1.05,1.05,0,0,0-.5.9.91.91,0,0,0,.3.7l1,1.1h1.3a1,1,0,0,1,1,1.1H9.4a1.79,1.79,0,0,0-1.8-1.8V21.1A1.83,1.83,0,0,0,9,19.3v-.1H8.7a2,2,0,0,1-1.1-.3,2.28,2.28,0,0,1-1-1.9V8.8a.7.7,0,1,0-1.4,0A1.65,1.65,0,0,1,6,10.3a1.79,1.79,0,0,1-1.8,1.8V8.5Z" transform="translate(-4.2 -2)"/></svg>
